<svg xmlns="http://www.w3.org/2000/svg" xmlns:xlink="http://www.w3.org/1999/xlink" xmlns:lucid="lucid" width="1983.59" height="1273.25"><g transform="translate(1112.579355043002 150.0898497188797)" lucid:page-tab-id="kPdZbUcbufr~"><path d="M-1806.87-1258.83h3677.74v2581.66h-3677.74z" fill="#fff"/><path d="M-604.53 983.44c0 66.12-53.6 119.72-119.72 119.72s-119.72-53.6-119.72-119.72 53.6-119.72 119.72-119.72 119.72 53.6 119.72 119.72z" stroke="#5e5e5e" stroke-width="3" fill="#ffd9d9"/><use xlink:href="#a" transform="matrix(1,0,0,1,-838.9671074326556,868.7202088157469) translate(3.0000000000000853 125.43749999999997)"/><path d="M157.5 304.07c0 66.12-53.6 119.72-119.73 119.72-66.12 0-119.72-53.6-119.72-119.73 0-66.12 53.6-119.72 119.72-119.72s119.72 53.6 119.72 119.72z" stroke="#5e5e5e" stroke-width="3" fill="#c3f7c8"/><use xlink:href="#b" transform="matrix(1,0,0,1,-76.95296926100775,189.35134254669322) translate(41.77777777777784 125.43749999999997)"/><path d="M521.93-10.37c0 66.12-53.6 119.72-119.72 119.72-66.1 0-119.7-53.6-119.7-119.72S336.1-130.1 402.2-130.1c66.13 0 119.73 53.6 119.73 119.73z" stroke="#5e5e5e" stroke-width="3" fill="#54c45e"/><use xlink:href="#c" transform="matrix(1,0,0,1,287.48822300456527,-125.08984971887969) translate(49.61111111111117 125.43749999999997)"/><path d="M-143.53 638.8l-.26 1.12-.4 1.02-.6.93-.7.84-.84.72-.93.58-1.02.42-1.06.25-1.05.1h-54.05v-2h53.96l.83-.08.76-.2.72-.3.66-.4.6-.5.5-.6.42-.68.3-.72.17-.72.03-140.67h2zm59.08-333.73l-54.82.08-.73.17-.72.3-.67.4-.6.52-.5.6-.4.66-.3.73-.2.76-.05.8-.03 139.8h-2l.03-139.87.08-1.05.26-1.07.4-1 .58-.94.72-.84.83-.7.94-.6 1-.4 1.12-.27 55.05-.08z" stroke="#5e5e5e" stroke-width=".05" fill="#5e5e5e"/><path d="M-204.43 644.76h-1.04l.02-1v-1h1.02z" fill="#5e5e5e"/><path d="M-204.4 644.78h-1.1l.02-1.02v-1.03h1.08zm-1.04-2v1.95h1v-1.95z" stroke="#5e5e5e" stroke-width=".05" fill="#5e5e5e"/><path d="M-83.45 304.06v1h-1.03v-2h1.05z" fill="#5e5e5e"/><path d="M-83.43 304.06v1.04h-1.07v-2.05h1.1zm-1.02-.96v1.95h.98v-1.95z" stroke="#5e5e5e" stroke-width=".05" fill="#5e5e5e"/><use xlink:href="#d" transform="matrix(1,0,0,1,-245.3418581122536,449.914155246743) translate(0 31.99999999999997)"/><use xlink:href="#e" transform="matrix(1,0,0,1,-245.3418581122536,449.914155246743) translate(166.3333333333332 31.99999999999997)"/><path d="M220.9 299.13l-.25 1.1-.42 1.02-.58.94-.7.82-.85.72-.93.57-1.02.43-1.07.26-1.05.07H160v-2h53.95l.82-.06.76-.18.73-.3.67-.4.6-.5.5-.6.4-.68.3-.72.18-.73.05-128.05h2zM280-9.37l-54.83.07-.73.18-.72.3-.67.4-.6.52-.5.6-.4.66-.3.73-.2.75-.06.82-.04 127.18h-2L219-4.4l.07-1.06.26-1.07.42-1.02.57-.94.72-.82.83-.7.94-.6 1.02-.4 1.1-.28 55.07-.07z" stroke="#5e5e5e" stroke-width=".05" fill="#5e5e5e"/><path d="M160 305.07h-1.03l.02-1-.02-1H160z" fill="#5e5e5e"/><path d="M160.04 305.1h-1.1l.02-1.02v-1.03h1.08zm-1.04-2v1.95h1v-1.95z" stroke="#5e5e5e" stroke-width=".05" fill="#5e5e5e"/><path d="M281-10.38v1h-1.04v-2H281z" fill="#5e5e5e"/><path d="M281-10.38l.02 1.04h-1.08v-2.05h1.1zm-1-.96v1.95h.97v-1.94z" stroke="#5e5e5e" stroke-width=".05" fill="#5e5e5e"/><use xlink:href="#f" transform="matrix(1,0,0,1,104.65488953676393,122.8513425466933) translate(0 31.99999999999997)"/><use xlink:href="#e" transform="matrix(1,0,0,1,104.65488953676393,122.8513425466933) translate(195.22222222222206 31.99999999999997)"/><path d="M-1092.58 908.3a6 6 0 0 1 6-6h223.48a6 6 0 0 1 6 6v148a6 6 0 0 1-6 6h-223.48a6 6 0 0 1-6-6z" fill="none"/><path d="M-857.1 1062.3c-5.53 0-10-4.5-10-10v-60c0-5.53-4.48-10-10-10 5.52 0 10-4.5 10-10v-60c0-5.53 4.47-10 10-10" stroke="#5e5e5e" stroke-width="3" fill="none"/><use xlink:href="#g" transform="matrix(1,0,0,1,-1087.579355043002,907.2919978937095) translate(17.629629629629846 84.33333333333331)"/><use xlink:href="#h" transform="matrix(1,0,0,1,-1087.579355043002,907.2919978937095) translate(100.33333333333344 84.33333333333331)"/><path d="M535.55-84.37a6 6 0 0 1 6-6H845a6 6 0 0 1 6 6v148a6 6 0 0 1-6 6H541.56a6 6 0 0 1-6-6z" fill="none"/><path d="M535.55 69.63c5.53 0 10-4.48 10-10v-60c0-5.52 4.48-10 10-10-5.52 0-10-4.48-10-10v-60c0-5.52-4.47-10-10-10" stroke="#5e5e5e" stroke-width="3" fill="none"/><use xlink:href="#i" transform="matrix(1,0,0,1,570.5530043185288,-85.36925358609324) translate(0 84.33333333333331)"/><use xlink:href="#h" transform="matrix(1,0,0,1,570.5530043185288,-85.36925358609324) translate(100.98148148148135 84.33333333333331)"/><path d="M-206.95 643.76c0 80.06-61.02 144.96-136.3 144.96-75.26 0-136.28-64.9-136.28-144.96s61.02-144.97 136.3-144.97c75.26 0 136.28 64.9 136.28 144.96z" stroke="#5e5e5e" stroke-width="3" fill="#fff7a1"/><use xlink:href="#j" transform="matrix(1,0,0,1,-474.52591516708264,503.7925348122661) translate(78.33333333333337 150.12499999999997)"/><path d="M-257.72 725.08c0 30.05-37.35 54.4-83.43 54.4-46.08 0-83.44-24.35-83.44-54.4 0-30.04 37.37-54.4 83.45-54.4 46.08 0 83.43 24.36 83.43 54.4z" stroke="#5e5e5e" stroke-width="3" fill="#ffdda6"/><use xlink:href="#k" transform="matrix(1,0,0,1,-419.5850438373757,675.6806109087087) translate(4.338333333333404 56.74999999999997)"/><path d="M-513.63 978.3l-.27 1.1-.42 1.02-.57.93-.7.84-.84.7-.94.58-1 .42-1.08.25-1.06.1h-81.5v-2h81.43l.83-.08.76-.18.7-.3.68-.42.6-.5.5-.6.42-.67.3-.72.17-.72.03-98.6h2zm86.55-252.3l-82.3.06-.72.18-.72.3-.67.4-.6.52-.5.6-.4.66-.3.73-.2.76-.06.83-.02 97.75h-2l.02-97.83.1-1.05.24-1.07.42-1.02.58-.93.7-.83.85-.7.94-.6 1-.4 1.12-.28 82.52-.07z" stroke="#5e5e5e" stroke-width=".05" fill="#5e5e5e"/><path d="M-602 984.24h-1.04v-2h1.04z" fill="#5e5e5e"/><path d="M-601.98 984.26h-1.1l.03-.8v-1.25h1.07zm-1.03-2v1.2l-.02.75h1v-1.94z" stroke="#5e5e5e" stroke-width=".05" fill="#5e5e5e"/><path d="M-426.1 725.07l.02.5.02.42h-1.05v-2h1.05z" fill="#5e5e5e"/><path d="M-426.06 725.07v.5l.02.45h-1.1v-2.05h1.1zm-1.02-1.05v1.95h1l-.03-.4v-.5l.02-1.05z" stroke="#5e5e5e" stroke-width=".05" fill="#5e5e5e"/><g><use xlink:href="#l" transform="matrix(1,0,0,1,-578.9443362648304,828.7809738291417) translate(0 33.77777777777774)"/></g><defs><path fill="#333" d="M128 0H69L1-190h53L99-40l48-150h52" id="m"/><path fill="#333" d="M110-194c64 0 96 36 96 99 0 64-35 99-97 99-61 0-95-36-95-99 0-62 34-99 96-99zm-1 164c35 0 45-28 45-65 0-40-10-65-43-65-34 0-45 26-45 65 0 36 10 65 43 65" id="n"/><path fill="#333" d="M190-63c-7 42-38 67-86 67-59 0-84-38-90-98-12-110 154-137 174-36l-49 2c-2-19-15-32-35-32-30 0-35 28-38 64-6 74 65 87 74 30" id="o"/><path fill="#333" d="M133-34C117-15 103 5 69 4 32 3 11-16 11-54c-1-60 55-63 116-61 1-26-3-47-28-47-18 1-26 9-28 27l-52-2c7-38 36-58 82-57s74 22 75 68l1 82c-1 14 12 18 25 15v27c-30 8-71 5-69-32zm-48 3c29 0 43-24 42-57-32 0-66-3-65 30 0 17 8 27 23 27" id="p"/><path fill="#333" d="M135-194c52 0 70 43 70 98 0 56-19 99-73 100-30 1-46-15-58-35L72 0H24l1-261h50v104c11-23 29-37 60-37zM114-30c31 0 40-27 40-66 0-37-7-63-39-63s-41 28-41 65c0 36 8 64 40 64" id="q"/><path fill="#333" d="M25 0v-261h50V0H25" id="r"/><path fill="#333" d="M135-150c-39-12-60 13-60 57V0H25l-1-190h47c2 13-1 29 3 40 6-28 27-53 61-41v41" id="s"/><path fill="#333" d="M25-224v-37h50v37H25zM25 0v-190h50V0H25" id="t"/><g id="a"><use transform="matrix(0.11111111111111101,0,0,0.11111111111111101,0,0)" xlink:href="#m"/><use transform="matrix(0.11111111111111101,0,0,0.11111111111111101,22.2222222222222,0)" xlink:href="#n"/><use transform="matrix(0.11111111111111101,0,0,0.11111111111111101,46.555555555555515,0)" xlink:href="#o"/><use transform="matrix(0.11111111111111101,0,0,0.11111111111111101,68.77777777777771,0)" xlink:href="#p"/><use transform="matrix(0.11111111111111101,0,0,0.11111111111111101,90.99999999999991,0)" xlink:href="#q"/><use transform="matrix(0.11111111111111101,0,0,0.11111111111111101,115.33333333333323,0)" xlink:href="#n"/><use transform="matrix(0.11111111111111101,0,0,0.11111111111111101,139.66666666666654,0)" xlink:href="#r"/><use transform="matrix(0.11111111111111101,0,0,0.11111111111111101,150.77777777777766,0)" xlink:href="#p"/><use transform="matrix(0.11111111111111101,0,0,0.11111111111111101,172.99999999999986,0)" xlink:href="#s"/><use transform="matrix(0.11111111111111101,0,0,0.11111111111111101,188.5555555555554,0)" xlink:href="#t"/><use transform="matrix(0.11111111111111101,0,0,0.11111111111111101,199.66666666666652,0)" xlink:href="#n"/></g><path fill="#333" d="M137-138c1-29-70-34-71-4 15 46 118 7 119 86 1 83-164 76-172 9l43-7c4 19 20 25 44 25 33 8 57-30 24-41C81-84 22-81 20-136c-2-80 154-74 161-7" id="u"/><path fill="#333" d="M185-48c-13 30-37 53-82 52C43 2 14-33 14-96s30-98 90-98c62 0 83 45 84 108H66c0 31 8 55 39 56 18 0 30-7 34-22zm-45-69c5-46-57-63-70-21-2 6-4 13-4 21h74" id="v"/><path fill="#333" d="M12 0v-35l95-120H19v-35h142v35L67-36h103V0H12" id="w"/><path fill="#333" d="M135-194c87-1 58 113 63 194h-50c-7-57 23-157-34-157-59 0-34 97-39 157H25l-1-190h47c2 12-1 28 3 38 12-26 28-41 61-42" id="x"/><g id="b"><use transform="matrix(0.11111111111111101,0,0,0.11111111111111101,0,0)" xlink:href="#u"/><use transform="matrix(0.11111111111111101,0,0,0.11111111111111101,22.2222222222222,0)" xlink:href="#v"/><use transform="matrix(0.11111111111111101,0,0,0.11111111111111101,44.4444444444444,0)" xlink:href="#w"/><use transform="matrix(0.11111111111111101,0,0,0.11111111111111101,64.44444444444439,0)" xlink:href="#t"/><use transform="matrix(0.11111111111111101,0,0,0.11111111111111101,75.55555555555549,0)" xlink:href="#n"/><use transform="matrix(0.11111111111111101,0,0,0.11111111111111101,99.8888888888888,0)" xlink:href="#x"/><use transform="matrix(0.11111111111111101,0,0,0.11111111111111101,124.2222222222221,0)" xlink:href="#v"/></g><path fill="#333" d="M220-157c-53 9-28 100-34 157h-49v-107c1-27-5-49-29-50C55-147 81-57 75 0H25l-1-190h47c2 12-1 28 3 38 10-53 101-56 108 0 13-22 24-43 59-42 82 1 51 116 57 194h-49v-107c-1-25-5-48-29-50" id="y"/><path fill="#333" d="M88-194c31-1 46 15 58 34l-1-101h50l1 261h-48c-2-10 0-23-3-31C134-8 116 4 84 4 32 4 16-41 15-95c0-56 19-97 73-99zm17 164c33 0 40-30 41-66 1-37-9-64-41-64s-38 30-39 65c0 43 13 65 39 65" id="z"/><path fill="#333" d="M85 4C-2 5 27-109 22-190h50c7 57-23 150 33 157 60-5 35-97 40-157h50l1 190h-47c-2-12 1-28-3-38-12 25-28 42-61 42" id="A"/><g id="c"><use transform="matrix(0.11111111111111101,0,0,0.11111111111111101,0,0)" xlink:href="#y"/><use transform="matrix(0.11111111111111101,0,0,0.11111111111111101,35.55555555555552,0)" xlink:href="#n"/><use transform="matrix(0.11111111111111101,0,0,0.11111111111111101,59.888888888888836,0)" xlink:href="#z"/><use transform="matrix(0.11111111111111101,0,0,0.11111111111111101,84.22222222222214,0)" xlink:href="#A"/><use transform="matrix(0.11111111111111101,0,0,0.11111111111111101,108.55555555555546,0)" xlink:href="#r"/><use transform="matrix(0.11111111111111101,0,0,0.11111111111111101,119.66666666666656,0)" xlink:href="#t"/></g><path fill="#333" d="M115-3C79 11 28 4 28-45v-112H4v-33h27l15-45h31v45h36v33H77v99c-1 23 16 31 38 25v30" id="B"/><g id="d"><use transform="matrix(0.11111111111111101,0,0,0.11111111111111101,0,0)" xlink:href="#s"/><use transform="matrix(0.11111111111111101,0,0,0.11111111111111101,15.555555555555541,0)" xlink:href="#p"/><use transform="matrix(0.11111111111111101,0,0,0.11111111111111101,37.77777777777774,0)" xlink:href="#o"/><use transform="matrix(0.11111111111111101,0,0,0.11111111111111101,59.99999999999994,0)" xlink:href="#o"/><use transform="matrix(0.11111111111111101,0,0,0.11111111111111101,82.22222222222214,0)" xlink:href="#n"/><use transform="matrix(0.11111111111111101,0,0,0.11111111111111101,106.55555555555546,0)" xlink:href="#r"/><use transform="matrix(0.11111111111111101,0,0,0.11111111111111101,117.66666666666656,0)" xlink:href="#B"/><use transform="matrix(0.11111111111111101,0,0,0.11111111111111101,130.88888888888877,0)" xlink:href="#n"/></g><g id="e"><use transform="matrix(0.11111111111111101,0,0,0.11111111111111101,0,0)" xlink:href="#t"/><use transform="matrix(0.11111111111111101,0,0,0.11111111111111101,11.1111111111111,0)" xlink:href="#x"/></g><g id="f"><use transform="matrix(0.11111111111111101,0,0,0.11111111111111101,0,0)" xlink:href="#p"/><use transform="matrix(0.11111111111111101,0,0,0.11111111111111101,22.2222222222222,0)" xlink:href="#u"/><use transform="matrix(0.11111111111111101,0,0,0.11111111111111101,44.4444444444444,0)" xlink:href="#u"/><use transform="matrix(0.11111111111111101,0,0,0.11111111111111101,66.6666666666666,0)" xlink:href="#n"/><use transform="matrix(0.11111111111111101,0,0,0.11111111111111101,90.99999999999991,0)" xlink:href="#o"/><use transform="matrix(0.11111111111111101,0,0,0.11111111111111101,113.22222222222211,0)" xlink:href="#t"/><use transform="matrix(0.11111111111111101,0,0,0.11111111111111101,124.33333333333321,0)" xlink:href="#p"/><use transform="matrix(0.11111111111111101,0,0,0.11111111111111101,146.55555555555543,0)" xlink:href="#B"/><use transform="matrix(0.11111111111111101,0,0,0.11111111111111101,159.77777777777763,0)" xlink:href="#n"/></g><path fill="#333" d="M6 0l50-261h32L37 0H6" id="C"/><path fill="#333" d="M30-147c31-64 166-65 159 27C183-49 158 1 86 4 9 8 1-88 30-147zM88-20c53 0 68-48 68-100 0-31-11-51-44-50-52 1-68 46-68 97 0 32 13 53 44 53" id="D"/><path fill="#333" d="M188 0h-37l-8-164L71 0H34L18-190h31l8 164 75-164h34l8 164 74-164h31" id="E"/><g id="g"><use transform="matrix(0.12962962962962946,0,0,0.12962962962962946,0,0)" xlink:href="#C"/><use transform="matrix(0.12962962962962946,0,0,0.12962962962962946,10.240740740740726,0)" xlink:href="#D"/><use transform="matrix(0.12962962962962946,0,0,0.12962962962962946,36.16666666666662,0)" xlink:href="#E"/></g><path fill="#333" d="M111-194c62-3 86 47 72 106H45c-7 38 6 69 45 68 27-1 43-14 53-32l24 11C152-15 129 4 87 4 38 3 12-23 12-71c0-70 32-119 99-123zm44 81c14-66-71-72-95-28-4 8-8 17-11 28h106" id="F"/><path fill="#333" d="M89 0H52L20-190h33L74-25l89-165h34" id="G"/><g id="h"><use transform="matrix(0.12962962962962946,0,0,0.12962962962962946,0,0)" xlink:href="#C"/><use transform="matrix(0.12962962962962946,0,0,0.12962962962962946,10.240740740740726,0)" xlink:href="#F"/><use transform="matrix(0.12962962962962946,0,0,0.12962962962962946,36.16666666666662,0)" xlink:href="#G"/><use transform="matrix(0.12962962962962946,0,0,0.12962962962962946,59.499999999999915,0)" xlink:href="#F"/><use transform="matrix(0.12962962962962946,0,0,0.12962962962962946,85.42592592592581,0)" xlink:href="#C"/></g><path fill="#333" d="M67-158c15-20 31-36 64-36 94 0 33 127 27 194h-32l25-140c3-38-53-32-70-12C52-117 51-51 37 0H6l51-261h31" id="H"/><path fill="#333" d="M50-231l6-30h32l-6 30H50zM6 0l37-190h31L37 0H6" id="I"/><path fill="#333" d="M103-194c29 0 47 14 56 36 2-11 5-23 8-32h30L160-5C157 61 82 97 21 62 9 55 4 45 1 30l28-7c7 42 83 31 92-3 4-16 9-38 13-55-13 20-29 36-62 36-40 0-60-25-60-64 0-71 23-131 91-131zm4 24c-53 0-58 54-61 104-2 27 10 44 36 44 49 0 65-50 67-102 1-29-15-46-42-46" id="J"/><g id="i"><use transform="matrix(0.12962962962962946,0,0,0.12962962962962946,0,0)" xlink:href="#H"/><use transform="matrix(0.12962962962962946,0,0,0.12962962962962946,25.925925925925892,0)" xlink:href="#I"/><use transform="matrix(0.12962962962962946,0,0,0.12962962962962946,36.16666666666662,0)" xlink:href="#J"/><use transform="matrix(0.12962962962962946,0,0,0.12962962962962946,62.09259259259251,0)" xlink:href="#H"/></g><path fill="#333" d="M132-34C116-15 102 5 68 4 31 3 10-16 10-54c-1-60 55-63 116-61 1-26-3-47-28-47-18 1-26 9-28 27l-52-2c7-38 36-58 82-57s74 22 75 68l1 82c-1 14 12 18 25 15v27c-30 8-71 5-69-32zm-48 3c29 0 43-24 42-57-32 0-66-3-65 30 0 17 8 27 23 27zm18-177l-59-48v-8h45l44 51v5h-30" id="K"/><g id="j"><use transform="matrix(0.11111111111111101,0,0,0.11111111111111101,0,0)" xlink:href="#v"/><use transform="matrix(0.11111111111111101,0,0,0.11111111111111101,22.2222222222222,0)" xlink:href="#x"/><use transform="matrix(0.11111111111111101,0,0,0.11111111111111101,46.555555555555515,0)" xlink:href="#B"/><use transform="matrix(0.11111111111111101,0,0,0.11111111111111101,59.777777777777736,0)" xlink:href="#t"/><use transform="matrix(0.11111111111111101,0,0,0.11111111111111101,70.88888888888883,0)" xlink:href="#B"/><use transform="matrix(0.11111111111111101,0,0,0.11111111111111101,84.11111111111104,0)" xlink:href="#K"/></g><g id="k"><use transform="matrix(0.11111111111111101,0,0,0.11111111111111101,0,0)" xlink:href="#p"/><use transform="matrix(0.11111111111111101,0,0,0.11111111111111101,22.2222222222222,0)" xlink:href="#B"/><use transform="matrix(0.11111111111111101,0,0,0.11111111111111101,35.444444444444414,0)" xlink:href="#B"/><use transform="matrix(0.11111111111111101,0,0,0.11111111111111101,48.66666666666663,0)" xlink:href="#s"/><use transform="matrix(0.11111111111111101,0,0,0.11111111111111101,64.22222222222217,0)" xlink:href="#t"/><use transform="matrix(0.11111111111111101,0,0,0.11111111111111101,75.33333333333327,0)" xlink:href="#q"/><use transform="matrix(0.11111111111111101,0,0,0.11111111111111101,99.66666666666659,0)" xlink:href="#A"/><use transform="matrix(0.11111111111111101,0,0,0.11111111111111101,123.99999999999991,0)" xlink:href="#B"/><use transform="matrix(0.11111111111111101,0,0,0.11111111111111101,137.22222222222211,0)" xlink:href="#t"/></g><path fill="#333" d="M135-194c53 0 70 44 70 98 0 56-19 98-73 100-31 1-45-17-59-34 3 33 2 69 2 105H25l-1-265h48c2 10 0 23 3 31 11-24 29-35 60-35zM114-30c33 0 39-31 40-66 0-38-9-64-40-64-56 0-55 130 0 130" id="L"/><g id="l"><use transform="matrix(0.11728395061728383,0,0,0.11728395061728383,0,0)" xlink:href="#B"/><use transform="matrix(0.11728395061728383,0,0,0.11728395061728383,13.956790123456775,0)" xlink:href="#t"/><use transform="matrix(0.11728395061728383,0,0,0.11728395061728383,25.68518518518516,0)" xlink:href="#L"/><use transform="matrix(0.11728395061728383,0,0,0.11728395061728383,51.37037037037032,0)" xlink:href="#t"/><use transform="matrix(0.11728395061728383,0,0,0.11728395061728383,63.0987654320987,0)" xlink:href="#w"/><use transform="matrix(0.11728395061728383,0,0,0.11728395061728383,84.20987654320979,0)" xlink:href="#w"/><use transform="matrix(0.11728395061728383,0,0,0.11728395061728383,105.32098765432087,0)" xlink:href="#p"/></g></defs></g></svg>