<svg id="mermaid-svg" width="100%" xmlns="http://www.w3.org/2000/svg" style="max-width: 1737px;" viewBox="-50 -10 1737 1722.5" role="graphics-document document" aria-roledescription="sequence" xmlns:xlink="http://www.w3.org/1999/xlink"><style xmlns="http://www.w3.org/1999/xhtml">@import url("https://cdnjs.cloudflare.com/ajax/libs/font-awesome/6.7.2/css/all.min.css");</style><g><rect x="1487" y="1636.5" fill="#eaeaea" stroke="#666" width="150" height="65" name="C" rx="3" ry="3" class="actor actor-bottom"/><text x="1562" y="1669" dominant-baseline="central" alignment-baseline="central" class="actor actor-box" style="text-anchor: middle; font-size: 16px; font-weight: 400;"><tspan x="1562" dy="0">Catalogo SSU</tspan></text></g><g><rect x="1110" y="1636.5" fill="#eaeaea" stroke="#666" width="150" height="65" name="E" rx="3" ry="3" class="actor actor-bottom"/><text x="1185" y="1669" dominant-baseline="central" alignment-baseline="central" class="actor actor-box" style="text-anchor: middle; font-size: 16px; font-weight: 400;"><tspan x="1185" dy="0">EnteTerzo</tspan></text></g><g><rect x="568" y="1636.5" fill="#eaeaea" stroke="#666" width="150" height="65" name="B" rx="3" ry="3" class="actor actor-bottom"/><text x="643" y="1669" dominant-baseline="central" alignment-baseline="central" class="actor actor-box" style="text-anchor: middle; font-size: 16px; font-weight: 400;"><tspan x="643" dy="0">BackOffice</tspan></text></g><g><rect x="239" y="1636.5" fill="#eaeaea" stroke="#666" width="150" height="65" name="F" rx="3" ry="3" class="actor actor-bottom"/><text x="314" y="1669" dominant-baseline="central" alignment-baseline="central" class="actor actor-box" style="text-anchor: middle; font-size: 16px; font-weight: 400;"><tspan x="314" dy="0">FrontOffice</tspan></text></g><g/><g><line id="actor4" x1="1562" y1="65" x2="1562" y2="1636.5" class="actor-line 200" stroke-width="0.5px" stroke="#999" name="C"/><g id="root-4"><rect x="1487" y="0" fill="#eaeaea" stroke="#666" width="150" height="65" name="C" rx="3" ry="3" class="actor actor-top"/><text x="1562" y="32.5" dominant-baseline="central" alignment-baseline="central" class="actor actor-box" style="text-anchor: middle; font-size: 16px; font-weight: 400;"><tspan x="1562" dy="0">Catalogo SSU</tspan></text></g></g><g><line id="actor3" x1="1185" y1="65" x2="1185" y2="1636.5" class="actor-line 200" stroke-width="0.5px" stroke="#999" name="E"/><g id="root-3"><rect x="1110" y="0" fill="#eaeaea" stroke="#666" width="150" height="65" name="E" rx="3" ry="3" class="actor actor-top"/><text x="1185" y="32.5" dominant-baseline="central" alignment-baseline="central" class="actor actor-box" style="text-anchor: middle; font-size: 16px; font-weight: 400;"><tspan x="1185" dy="0">EnteTerzo</tspan></text></g></g><g><line id="actor2" x1="643" y1="65" x2="643" y2="1636.5" class="actor-line 200" stroke-width="0.5px" stroke="#999" name="B"/><g id="root-2"><rect x="568" y="0" fill="#eaeaea" stroke="#666" width="150" height="65" name="B" rx="3" ry="3" class="actor actor-top"/><text x="643" y="32.5" dominant-baseline="central" alignment-baseline="central" class="actor actor-box" style="text-anchor: middle; font-size: 16px; font-weight: 400;"><tspan x="643" dy="0">BackOffice</tspan></text></g></g><g><line id="actor1" x1="314" y1="65" x2="314" y2="1636.5" class="actor-line 200" stroke-width="0.5px" stroke="#999" name="F"/><g id="root-1"><rect x="239" y="0" fill="#eaeaea" stroke="#666" width="150" height="65" name="F" rx="3" ry="3" class="actor actor-top"/><text x="314" y="32.5" dominant-baseline="central" alignment-baseline="central" class="actor actor-box" style="text-anchor: middle; font-size: 16px; font-weight: 400;"><tspan x="314" dy="0">FrontOffice</tspan></text></g></g><g><line id="actor0" x1="75" y1="80" x2="75" y2="1636.5" class="actor-line 200" stroke-width="0.5px" stroke="#999" name="P"/></g><style>#mermaid-svg{font-family:"trebuchet ms",verdana,arial,sans-serif;font-size:16px;fill:#333;}@keyframes edge-animation-frame{from{stroke-dashoffset:0;}}@keyframes dash{to{stroke-dashoffset:0;}}#mermaid-svg .edge-animation-slow{stroke-dasharray:9,5!important;stroke-dashoffset:900;animation:dash 50s linear infinite;stroke-linecap:round;}#mermaid-svg .edge-animation-fast{stroke-dasharray:9,5!important;stroke-dashoffset:900;animation:dash 20s linear infinite;stroke-linecap:round;}#mermaid-svg .error-icon{fill:#552222;}#mermaid-svg .error-text{fill:#552222;stroke:#552222;}#mermaid-svg .edge-thickness-normal{stroke-width:1px;}#mermaid-svg .edge-thickness-thick{stroke-width:3.5px;}#mermaid-svg .edge-pattern-solid{stroke-dasharray:0;}#mermaid-svg .edge-thickness-invisible{stroke-width:0;fill:none;}#mermaid-svg .edge-pattern-dashed{stroke-dasharray:3;}#mermaid-svg .edge-pattern-dotted{stroke-dasharray:2;}#mermaid-svg .marker{fill:#333333;stroke:#333333;}#mermaid-svg .marker.cross{stroke:#333333;}#mermaid-svg svg{font-family:"trebuchet ms",verdana,arial,sans-serif;font-size:16px;}#mermaid-svg p{margin:0;}#mermaid-svg .actor{stroke:hsl(259.6261682243, 59.7765363128%, 87.9019607843%);fill:#ECECFF;}#mermaid-svg text.actor&gt;tspan{fill:black;stroke:none;}#mermaid-svg .actor-line{stroke:hsl(259.6261682243, 59.7765363128%, 87.9019607843%);}#mermaid-svg .innerArc{stroke-width:1.5;stroke-dasharray:none;}#mermaid-svg .messageLine0{stroke-width:1.5;stroke-dasharray:none;stroke:#333;}#mermaid-svg .messageLine1{stroke-width:1.5;stroke-dasharray:2,2;stroke:#333;}#mermaid-svg #arrowhead path{fill:#333;stroke:#333;}#mermaid-svg .sequenceNumber{fill:white;}#mermaid-svg #sequencenumber{fill:#333;}#mermaid-svg #crosshead path{fill:#333;stroke:#333;}#mermaid-svg .messageText{fill:#333;stroke:none;}#mermaid-svg .labelBox{stroke:hsl(259.6261682243, 59.7765363128%, 87.9019607843%);fill:#ECECFF;}#mermaid-svg .labelText,#mermaid-svg .labelText&gt;tspan{fill:black;stroke:none;}#mermaid-svg .loopText,#mermaid-svg .loopText&gt;tspan{fill:black;stroke:none;}#mermaid-svg .loopLine{stroke-width:2px;stroke-dasharray:2,2;stroke:hsl(259.6261682243, 59.7765363128%, 87.9019607843%);fill:hsl(259.6261682243, 59.7765363128%, 87.9019607843%);}#mermaid-svg .note{stroke:#aaaa33;fill:#fff5ad;}#mermaid-svg .noteText,#mermaid-svg .noteText&gt;tspan{fill:black;stroke:none;}#mermaid-svg .activation0{fill:#f4f4f4;stroke:#666;}#mermaid-svg .activation1{fill:#f4f4f4;stroke:#666;}#mermaid-svg .activation2{fill:#f4f4f4;stroke:#666;}#mermaid-svg .actorPopupMenu{position:absolute;}#mermaid-svg .actorPopupMenuPanel{position:absolute;fill:#ECECFF;box-shadow:0px 8px 16px 0px rgba(0,0,0,0.2);filter:drop-shadow(3px 5px 2px rgb(0 0 0 / 0.4));}#mermaid-svg .actor-man line{stroke:hsl(259.6261682243, 59.7765363128%, 87.9019607843%);fill:#ECECFF;}#mermaid-svg .actor-man circle,#mermaid-svg line{stroke:hsl(259.6261682243, 59.7765363128%, 87.9019607843%);fill:#ECECFF;stroke-width:2px;}#mermaid-svg :root{--mermaid-font-family:"trebuchet ms",verdana,arial,sans-serif;}</style><g/><defs><symbol id="computer" width="24" height="24"><path transform="scale(.5)" d="M2 2v13h20v-13h-20zm18 11h-16v-9h16v9zm-10.228 6l.466-1h3.524l.467 1h-4.457zm14.228 3h-24l2-6h2.104l-1.33 4h18.45l-1.297-4h2.073l2 6zm-5-10h-14v-7h14v7z"/></symbol></defs><defs><symbol id="database" fill-rule="evenodd" clip-rule="evenodd"><path transform="scale(.5)" d="M12.258.001l.256.004.255.005.253.008.251.01.249.012.247.015.246.016.242.019.241.02.239.023.236.024.233.027.231.028.229.031.225.032.223.034.22.036.217.038.214.04.211.041.208.043.205.045.201.046.198.048.194.05.191.051.187.053.183.054.18.056.175.057.172.059.168.06.163.061.16.063.155.064.15.066.074.033.073.033.071.034.07.034.069.035.068.035.067.035.066.035.064.036.064.036.062.036.06.036.06.037.058.037.058.037.055.038.055.038.053.038.052.038.051.039.05.039.048.039.047.039.045.04.044.04.043.04.041.04.04.041.039.041.037.041.036.041.034.041.033.042.032.042.03.042.029.042.027.042.026.043.024.043.023.043.021.043.02.043.018.044.017.043.015.044.013.044.012.044.011.045.009.044.007.045.006.045.004.045.002.045.001.045v17l-.001.045-.002.045-.004.045-.006.045-.007.045-.009.044-.011.045-.012.044-.013.044-.015.044-.017.043-.018.044-.02.043-.021.043-.023.043-.024.043-.026.043-.027.042-.029.042-.03.042-.032.042-.033.042-.034.041-.036.041-.037.041-.039.041-.04.041-.041.04-.043.04-.044.04-.045.04-.047.039-.048.039-.05.039-.051.039-.052.038-.053.038-.055.038-.055.038-.058.037-.058.037-.06.037-.06.036-.062.036-.064.036-.064.036-.066.035-.067.035-.068.035-.069.035-.07.034-.071.034-.073.033-.074.033-.15.066-.155.064-.16.063-.163.061-.168.06-.172.059-.175.057-.18.056-.183.054-.187.053-.191.051-.194.05-.198.048-.201.046-.205.045-.208.043-.211.041-.214.04-.217.038-.22.036-.223.034-.225.032-.229.031-.231.028-.233.027-.236.024-.239.023-.241.02-.242.019-.246.016-.247.015-.249.012-.251.01-.253.008-.255.005-.256.004-.258.001-.258-.001-.256-.004-.255-.005-.253-.008-.251-.01-.249-.012-.247-.015-.245-.016-.243-.019-.241-.02-.238-.023-.236-.024-.234-.027-.231-.028-.228-.031-.226-.032-.223-.034-.22-.036-.217-.038-.214-.04-.211-.041-.208-.043-.204-.045-.201-.046-.198-.048-.195-.05-.19-.051-.187-.053-.184-.054-.179-.056-.176-.057-.172-.059-.167-.06-.164-.061-.159-.063-.155-.064-.151-.066-.074-.033-.072-.033-.072-.034-.07-.034-.069-.035-.068-.035-.067-.035-.066-.035-.064-.036-.063-.036-.062-.036-.061-.036-.06-.037-.058-.037-.057-.037-.056-.038-.055-.038-.053-.038-.052-.038-.051-.039-.049-.039-.049-.039-.046-.039-.046-.04-.044-.04-.043-.04-.041-.04-.04-.041-.039-.041-.037-.041-.036-.041-.034-.041-.033-.042-.032-.042-.03-.042-.029-.042-.027-.042-.026-.043-.024-.043-.023-.043-.021-.043-.02-.043-.018-.044-.017-.043-.015-.044-.013-.044-.012-.044-.011-.045-.009-.044-.007-.045-.006-.045-.004-.045-.002-.045-.001-.045v-17l.001-.045.002-.045.004-.045.006-.045.007-.045.009-.044.011-.045.012-.044.013-.044.015-.044.017-.043.018-.044.02-.043.021-.043.023-.043.024-.043.026-.043.027-.042.029-.042.03-.042.032-.042.033-.042.034-.041.036-.041.037-.041.039-.041.04-.041.041-.04.043-.04.044-.04.046-.04.046-.039.049-.039.049-.039.051-.039.052-.038.053-.038.055-.038.056-.038.057-.037.058-.037.06-.037.061-.036.062-.036.063-.036.064-.036.066-.035.067-.035.068-.035.069-.035.07-.034.072-.034.072-.033.074-.033.151-.066.155-.064.159-.063.164-.061.167-.06.172-.059.176-.057.179-.056.184-.054.187-.053.19-.051.195-.05.198-.048.201-.046.204-.045.208-.043.211-.041.214-.04.217-.038.22-.036.223-.034.226-.032.228-.031.231-.028.234-.027.236-.024.238-.023.241-.02.243-.019.245-.016.247-.015.249-.012.251-.01.253-.008.255-.005.256-.004.258-.001.258.001zm-9.258 20.499v.01l.001.021.003.021.004.022.005.021.006.022.007.022.009.023.01.022.011.023.012.023.013.023.015.023.016.024.017.023.018.024.019.024.021.024.022.025.023.024.024.025.052.049.056.05.061.051.066.051.07.051.075.051.079.052.084.052.088.052.092.052.097.052.102.051.105.052.11.052.114.051.119.051.123.051.127.05.131.05.135.05.139.048.144.049.147.047.152.047.155.047.16.045.163.045.167.043.171.043.176.041.178.041.183.039.187.039.19.037.194.035.197.035.202.033.204.031.209.03.212.029.216.027.219.025.222.024.226.021.23.02.233.018.236.016.24.015.243.012.246.01.249.008.253.005.256.004.259.001.26-.001.257-.004.254-.005.25-.008.247-.011.244-.012.241-.014.237-.016.233-.018.231-.021.226-.021.224-.024.22-.026.216-.027.212-.028.21-.031.205-.031.202-.034.198-.034.194-.036.191-.037.187-.039.183-.04.179-.04.175-.042.172-.043.168-.044.163-.045.16-.046.155-.046.152-.047.148-.048.143-.049.139-.049.136-.05.131-.05.126-.05.123-.051.118-.052.114-.051.11-.052.106-.052.101-.052.096-.052.092-.052.088-.053.083-.051.079-.052.074-.052.07-.051.065-.051.06-.051.056-.05.051-.05.023-.024.023-.025.021-.024.02-.024.019-.024.018-.024.017-.024.015-.023.014-.024.013-.023.012-.023.01-.023.01-.022.008-.022.006-.022.006-.022.004-.022.004-.021.001-.021.001-.021v-4.127l-.077.055-.08.053-.083.054-.085.053-.087.052-.09.052-.093.051-.095.05-.097.05-.1.049-.102.049-.105.048-.106.047-.109.047-.111.046-.114.045-.115.045-.118.044-.12.043-.122.042-.124.042-.126.041-.128.04-.13.04-.132.038-.134.038-.135.037-.138.037-.139.035-.142.035-.143.034-.144.033-.147.032-.148.031-.15.03-.151.03-.153.029-.154.027-.156.027-.158.026-.159.025-.161.024-.162.023-.163.022-.165.021-.166.02-.167.019-.169.018-.169.017-.171.016-.173.015-.173.014-.175.013-.175.012-.177.011-.178.01-.179.008-.179.008-.181.006-.182.005-.182.004-.184.003-.184.002h-.37l-.184-.002-.184-.003-.182-.004-.182-.005-.181-.006-.179-.008-.179-.008-.178-.01-.176-.011-.176-.012-.175-.013-.173-.014-.172-.015-.171-.016-.17-.017-.169-.018-.167-.019-.166-.02-.165-.021-.163-.022-.162-.023-.161-.024-.159-.025-.157-.026-.156-.027-.155-.027-.153-.029-.151-.03-.15-.03-.148-.031-.146-.032-.145-.033-.143-.034-.141-.035-.14-.035-.137-.037-.136-.037-.134-.038-.132-.038-.13-.04-.128-.04-.126-.041-.124-.042-.122-.042-.12-.044-.117-.043-.116-.045-.113-.045-.112-.046-.109-.047-.106-.047-.105-.048-.102-.049-.1-.049-.097-.05-.095-.05-.093-.052-.09-.051-.087-.052-.085-.053-.083-.054-.08-.054-.077-.054v4.127zm0-5.654v.011l.001.021.003.021.004.021.005.022.006.022.007.022.009.022.01.022.011.023.012.023.013.023.015.024.016.023.017.024.018.024.019.024.021.024.022.024.023.025.024.024.052.05.056.05.061.05.066.051.07.051.075.052.079.051.084.052.088.052.092.052.097.052.102.052.105.052.11.051.114.051.119.052.123.05.127.051.131.05.135.049.139.049.144.048.147.048.152.047.155.046.16.045.163.045.167.044.171.042.176.042.178.04.183.04.187.038.19.037.194.036.197.034.202.033.204.032.209.03.212.028.216.027.219.025.222.024.226.022.23.02.233.018.236.016.24.014.243.012.246.01.249.008.253.006.256.003.259.001.26-.001.257-.003.254-.006.25-.008.247-.01.244-.012.241-.015.237-.016.233-.018.231-.02.226-.022.224-.024.22-.025.216-.027.212-.029.21-.03.205-.032.202-.033.198-.035.194-.036.191-.037.187-.039.183-.039.179-.041.175-.042.172-.043.168-.044.163-.045.16-.045.155-.047.152-.047.148-.048.143-.048.139-.05.136-.049.131-.05.126-.051.123-.051.118-.051.114-.052.11-.052.106-.052.101-.052.096-.052.092-.052.088-.052.083-.052.079-.052.074-.051.07-.052.065-.051.06-.05.056-.051.051-.049.023-.025.023-.024.021-.025.02-.024.019-.024.018-.024.017-.024.015-.023.014-.023.013-.024.012-.022.01-.023.01-.023.008-.022.006-.022.006-.022.004-.021.004-.022.001-.021.001-.021v-4.139l-.077.054-.08.054-.083.054-.085.052-.087.053-.09.051-.093.051-.095.051-.097.05-.1.049-.102.049-.105.048-.106.047-.109.047-.111.046-.114.045-.115.044-.118.044-.12.044-.122.042-.124.042-.126.041-.128.04-.13.039-.132.039-.134.038-.135.037-.138.036-.139.036-.142.035-.143.033-.144.033-.147.033-.148.031-.15.03-.151.03-.153.028-.154.028-.156.027-.158.026-.159.025-.161.024-.162.023-.163.022-.165.021-.166.02-.167.019-.169.018-.169.017-.171.016-.173.015-.173.014-.175.013-.175.012-.177.011-.178.009-.179.009-.179.007-.181.007-.182.005-.182.004-.184.003-.184.002h-.37l-.184-.002-.184-.003-.182-.004-.182-.005-.181-.007-.179-.007-.179-.009-.178-.009-.176-.011-.176-.012-.175-.013-.173-.014-.172-.015-.171-.016-.17-.017-.169-.018-.167-.019-.166-.02-.165-.021-.163-.022-.162-.023-.161-.024-.159-.025-.157-.026-.156-.027-.155-.028-.153-.028-.151-.03-.15-.03-.148-.031-.146-.033-.145-.033-.143-.033-.141-.035-.14-.036-.137-.036-.136-.037-.134-.038-.132-.039-.13-.039-.128-.04-.126-.041-.124-.042-.122-.043-.12-.043-.117-.044-.116-.044-.113-.046-.112-.046-.109-.046-.106-.047-.105-.048-.102-.049-.1-.049-.097-.05-.095-.051-.093-.051-.09-.051-.087-.053-.085-.052-.083-.054-.08-.054-.077-.054v4.139zm0-5.666v.011l.001.02.003.022.004.021.005.022.006.021.007.022.009.023.01.022.011.023.012.023.013.023.015.023.016.024.017.024.018.023.019.024.021.025.022.024.023.024.024.025.052.05.056.05.061.05.066.051.07.051.075.052.079.051.084.052.088.052.092.052.097.052.102.052.105.051.11.052.114.051.119.051.123.051.127.05.131.05.135.05.139.049.144.048.147.048.152.047.155.046.16.045.163.045.167.043.171.043.176.042.178.04.183.04.187.038.19.037.194.036.197.034.202.033.204.032.209.03.212.028.216.027.219.025.222.024.226.021.23.02.233.018.236.017.24.014.243.012.246.01.249.008.253.006.256.003.259.001.26-.001.257-.003.254-.006.25-.008.247-.01.244-.013.241-.014.237-.016.233-.018.231-.02.226-.022.224-.024.22-.025.216-.027.212-.029.21-.03.205-.032.202-.033.198-.035.194-.036.191-.037.187-.039.183-.039.179-.041.175-.042.172-.043.168-.044.163-.045.16-.045.155-.047.152-.047.148-.048.143-.049.139-.049.136-.049.131-.051.126-.05.123-.051.118-.052.114-.051.11-.052.106-.052.101-.052.096-.052.092-.052.088-.052.083-.052.079-.052.074-.052.07-.051.065-.051.06-.051.056-.05.051-.049.023-.025.023-.025.021-.024.02-.024.019-.024.018-.024.017-.024.015-.023.014-.024.013-.023.012-.023.01-.022.01-.023.008-.022.006-.022.006-.022.004-.022.004-.021.001-.021.001-.021v-4.153l-.077.054-.08.054-.083.053-.085.053-.087.053-.09.051-.093.051-.095.051-.097.05-.1.049-.102.048-.105.048-.106.048-.109.046-.111.046-.114.046-.115.044-.118.044-.12.043-.122.043-.124.042-.126.041-.128.04-.13.039-.132.039-.134.038-.135.037-.138.036-.139.036-.142.034-.143.034-.144.033-.147.032-.148.032-.15.03-.151.03-.153.028-.154.028-.156.027-.158.026-.159.024-.161.024-.162.023-.163.023-.165.021-.166.02-.167.019-.169.018-.169.017-.171.016-.173.015-.173.014-.175.013-.175.012-.177.01-.178.01-.179.009-.179.007-.181.006-.182.006-.182.004-.184.003-.184.001-.185.001-.185-.001-.184-.001-.184-.003-.182-.004-.182-.006-.181-.006-.179-.007-.179-.009-.178-.01-.176-.01-.176-.012-.175-.013-.173-.014-.172-.015-.171-.016-.17-.017-.169-.018-.167-.019-.166-.02-.165-.021-.163-.023-.162-.023-.161-.024-.159-.024-.157-.026-.156-.027-.155-.028-.153-.028-.151-.03-.15-.03-.148-.032-.146-.032-.145-.033-.143-.034-.141-.034-.14-.036-.137-.036-.136-.037-.134-.038-.132-.039-.13-.039-.128-.041-.126-.041-.124-.041-.122-.043-.12-.043-.117-.044-.116-.044-.113-.046-.112-.046-.109-.046-.106-.048-.105-.048-.102-.048-.1-.05-.097-.049-.095-.051-.093-.051-.09-.052-.087-.052-.085-.053-.083-.053-.08-.054-.077-.054v4.153zm8.74-8.179l-.257.004-.254.005-.25.008-.247.011-.244.012-.241.014-.237.016-.233.018-.231.021-.226.022-.224.023-.22.026-.216.027-.212.028-.21.031-.205.032-.202.033-.198.034-.194.036-.191.038-.187.038-.183.04-.179.041-.175.042-.172.043-.168.043-.163.045-.16.046-.155.046-.152.048-.148.048-.143.048-.139.049-.136.05-.131.05-.126.051-.123.051-.118.051-.114.052-.11.052-.106.052-.101.052-.096.052-.092.052-.088.052-.083.052-.079.052-.074.051-.07.052-.065.051-.06.05-.056.05-.051.05-.023.025-.023.024-.021.024-.02.025-.019.024-.018.024-.017.023-.015.024-.014.023-.013.023-.012.023-.01.023-.01.022-.008.022-.006.023-.006.021-.004.022-.004.021-.001.021-.001.021.001.021.001.021.004.021.004.022.006.021.006.023.008.022.01.022.01.023.012.023.013.023.014.023.015.024.017.023.018.024.019.024.02.025.021.024.023.024.023.025.051.05.056.05.06.05.065.051.07.052.074.051.079.052.083.052.088.052.092.052.096.052.101.052.106.052.11.052.114.052.118.051.123.051.126.051.131.05.136.05.139.049.143.048.148.048.152.048.155.046.16.046.163.045.168.043.172.043.175.042.179.041.183.04.187.038.191.038.194.036.198.034.202.033.205.032.21.031.212.028.216.027.22.026.224.023.226.022.231.021.233.018.237.016.241.014.244.012.247.011.25.008.254.005.257.004.26.001.26-.001.257-.004.254-.005.25-.008.247-.011.244-.012.241-.014.237-.016.233-.018.231-.021.226-.022.224-.023.22-.026.216-.027.212-.028.21-.031.205-.032.202-.033.198-.034.194-.036.191-.038.187-.038.183-.04.179-.041.175-.042.172-.043.168-.043.163-.045.16-.046.155-.046.152-.048.148-.048.143-.048.139-.049.136-.05.131-.05.126-.051.123-.051.118-.051.114-.052.11-.052.106-.052.101-.052.096-.052.092-.052.088-.052.083-.052.079-.052.074-.051.07-.052.065-.051.06-.05.056-.05.051-.05.023-.025.023-.024.021-.024.02-.025.019-.024.018-.024.017-.023.015-.024.014-.023.013-.023.012-.023.01-.023.01-.022.008-.022.006-.023.006-.021.004-.022.004-.021.001-.021.001-.021-.001-.021-.001-.021-.004-.021-.004-.022-.006-.021-.006-.023-.008-.022-.01-.022-.01-.023-.012-.023-.013-.023-.014-.023-.015-.024-.017-.023-.018-.024-.019-.024-.02-.025-.021-.024-.023-.024-.023-.025-.051-.05-.056-.05-.06-.05-.065-.051-.07-.052-.074-.051-.079-.052-.083-.052-.088-.052-.092-.052-.096-.052-.101-.052-.106-.052-.11-.052-.114-.052-.118-.051-.123-.051-.126-.051-.131-.05-.136-.05-.139-.049-.143-.048-.148-.048-.152-.048-.155-.046-.16-.046-.163-.045-.168-.043-.172-.043-.175-.042-.179-.041-.183-.04-.187-.038-.191-.038-.194-.036-.198-.034-.202-.033-.205-.032-.21-.031-.212-.028-.216-.027-.22-.026-.224-.023-.226-.022-.231-.021-.233-.018-.237-.016-.241-.014-.244-.012-.247-.011-.25-.008-.254-.005-.257-.004-.26-.001-.26.001z"/></symbol></defs><defs><symbol id="clock" width="24" height="24"><path transform="scale(.5)" d="M12 2c5.514 0 10 4.486 10 10s-4.486 10-10 10-10-4.486-10-10 4.486-10 10-10zm0-2c-6.627 0-12 5.373-12 12s5.373 12 12 12 12-5.373 12-12-5.373-12-12-12zm5.848 12.459c.202.038.202.333.001.372-1.907.361-6.045 1.111-6.547 1.111-.719 0-1.301-.582-1.301-1.301 0-.512.77-5.447 1.125-7.445.034-.192.312-.181.343.014l.985 6.238 5.394 1.011z"/></symbol></defs><defs><marker id="arrowhead" refX="7.9" refY="5" markerUnits="userSpaceOnUse" markerWidth="12" markerHeight="12" orient="auto-start-reverse"><path d="M -1 0 L 10 5 L 0 10 z"/></marker></defs><defs><marker id="crosshead" markerWidth="15" markerHeight="8" orient="auto" refX="4" refY="4.5"><path fill="none" stroke="#000000" stroke-width="1pt" d="M 1,2 L 6,7 M 6,2 L 1,7" style="stroke-dasharray: 0, 0;"/></marker></defs><defs><marker id="filled-head" refX="15.5" refY="7" markerWidth="20" markerHeight="28" orient="auto"><path d="M 18,7 L9,13 L14,7 L9,1 Z"/></marker></defs><defs><marker id="sequencenumber" refX="15" refY="15" markerWidth="60" markerHeight="40" orient="auto"><circle cx="15" cy="15" r="6"/></marker></defs><g><rect x="50" y="75" fill="#EDF2AE" stroke="#666" width="1160" height="37" class="note"/><text x="630" y="80" text-anchor="middle" dominant-baseline="middle" alignment-baseline="middle" class="noteText" dy="1em" style="font-size: 16px; font-weight: 400;"><tspan x="630">istanza presentata e processo in corso</tspan></text></g><g><rect x="50" y="122" fill="#EDF2AE" stroke="#666" width="1160" height="37" class="note"/><text x="630" y="127" text-anchor="middle" dominant-baseline="middle" alignment-baseline="middle" class="noteText" dy="1em" style="font-size: 16px; font-weight: 400;"><tspan x="630">Possibile comunicazione tra SUAP ed ET</tspan></text></g><g><line x1="632" y1="259" x2="1573" y2="259" class="loopLine"/><line x1="1573" y1="259" x2="1573" y2="464" class="loopLine"/><line x1="632" y1="464" x2="1573" y2="464" class="loopLine"/><line x1="632" y1="259" x2="632" y2="464" class="loopLine"/><polygon points="632,259 682,259 682,272 673.6,279 632,279" class="labelBox"/><text x="657" y="272" text-anchor="middle" dominant-baseline="middle" alignment-baseline="middle" class="labelText" style="font-size: 16px; font-weight: 400;">opt</text><text x="1127.5" y="277" text-anchor="middle" class="loopText" style="font-size: 16px; font-weight: 400;"><tspan x="1127.5">​</tspan></text></g><g><line x1="632" y1="474" x2="1573" y2="474" class="loopLine"/><line x1="1573" y1="474" x2="1573" y2="679" class="loopLine"/><line x1="632" y1="679" x2="1573" y2="679" class="loopLine"/><line x1="632" y1="474" x2="632" y2="679" class="loopLine"/><polygon points="632,474 682,474 682,487 673.6,494 632,494" class="labelBox"/><text x="657" y="487" text-anchor="middle" dominant-baseline="middle" alignment-baseline="middle" class="labelText" style="font-size: 16px; font-weight: 400;">opt</text><text x="1127.5" y="492" text-anchor="middle" class="loopText" style="font-size: 16px; font-weight: 400;"><tspan x="1127.5">​</tspan></text></g><g><line x1="622" y1="214" x2="1583" y2="214" class="loopLine"/><line x1="1583" y1="214" x2="1583" y2="689" class="loopLine"/><line x1="622" y1="689" x2="1583" y2="689" class="loopLine"/><line x1="622" y1="214" x2="622" y2="689" class="loopLine"/><polygon points="622,214 672,214 672,227 663.6,234 622,234" class="labelBox"/><text x="647" y="227" text-anchor="middle" dominant-baseline="middle" alignment-baseline="middle" class="labelText" style="font-size: 16px; font-weight: 400;">loop</text><text x="1127.5" y="232" text-anchor="middle" class="loopText" style="font-size: 16px; font-weight: 400;"><tspan x="1127.5">[Inizio scambio di comunicazioni]</tspan></text></g><g><line x1="612" y1="169" x2="1593" y2="169" class="loopLine"/><line x1="1593" y1="169" x2="1593" y2="699" class="loopLine"/><line x1="612" y1="699" x2="1593" y2="699" class="loopLine"/><line x1="612" y1="169" x2="612" y2="699" class="loopLine"/><polygon points="612,169 662,169 662,182 653.6,189 612,189" class="labelBox"/><text x="637" y="182" text-anchor="middle" dominant-baseline="middle" alignment-baseline="middle" class="labelText" style="font-size: 16px; font-weight: 400;">opt</text><text x="1127.5" y="187" text-anchor="middle" class="loopText" style="font-size: 16px; font-weight: 400;"><tspan x="1127.5">[Comunicazione generica da tra BO(A) ed ET(B)]</tspan></text></g><g><rect x="50" y="709" fill="#EDF2AE" stroke="#666" width="1160" height="37" class="note"/><text x="630" y="714" text-anchor="middle" dominant-baseline="middle" alignment-baseline="middle" class="noteText" dy="1em" style="font-size: 16px; font-weight: 400;"><tspan x="630">Possibile comunicazione tra Presentatore e SUAP</tspan></text></g><g><line x1="64" y1="1088.5" x2="1573" y2="1088.5" class="loopLine"/><line x1="1573" y1="1088.5" x2="1573" y2="1337.5" class="loopLine"/><line x1="64" y1="1337.5" x2="1573" y2="1337.5" class="loopLine"/><line x1="64" y1="1088.5" x2="64" y2="1337.5" class="loopLine"/><polygon points="64,1088.5 114,1088.5 114,1101.5 105.6,1108.5 64,1108.5" class="labelBox"/><text x="89" y="1101" text-anchor="middle" dominant-baseline="middle" alignment-baseline="middle" class="labelText" style="font-size: 16px; font-weight: 400;">opt</text><text x="843.5" y="1106" text-anchor="middle" class="loopText" style="font-size: 16px; font-weight: 400;"><tspan x="843.5">​</tspan></text></g><g><line x1="64" y1="1347.5" x2="1573" y2="1347.5" class="loopLine"/><line x1="1573" y1="1347.5" x2="1573" y2="1596.5" class="loopLine"/><line x1="64" y1="1596.5" x2="1573" y2="1596.5" class="loopLine"/><line x1="64" y1="1347.5" x2="64" y2="1596.5" class="loopLine"/><polygon points="64,1347.5 114,1347.5 114,1360.5 105.6,1367.5 64,1367.5" class="labelBox"/><text x="89" y="1360" text-anchor="middle" dominant-baseline="middle" alignment-baseline="middle" class="labelText" style="font-size: 16px; font-weight: 400;">opt</text><text x="843.5" y="1365" text-anchor="middle" class="loopText" style="font-size: 16px; font-weight: 400;"><tspan x="843.5">​</tspan></text></g><g><line x1="54" y1="1043.5" x2="1583" y2="1043.5" class="loopLine"/><line x1="1583" y1="1043.5" x2="1583" y2="1606.5" class="loopLine"/><line x1="54" y1="1606.5" x2="1583" y2="1606.5" class="loopLine"/><line x1="54" y1="1043.5" x2="54" y2="1606.5" class="loopLine"/><polygon points="54,1043.5 104,1043.5 104,1056.5 95.6,1063.5 54,1063.5" class="labelBox"/><text x="79" y="1056" text-anchor="middle" dominant-baseline="middle" alignment-baseline="middle" class="labelText" style="font-size: 16px; font-weight: 400;">loop</text><text x="843.5" y="1061" text-anchor="middle" class="loopText" style="font-size: 16px; font-weight: 400;"><tspan x="843.5">[Inizio scambio di comunicazioni]</tspan></text></g><g><line x1="44" y1="756" x2="1593" y2="756" class="loopLine"/><line x1="1593" y1="756" x2="1593" y2="1616.5" class="loopLine"/><line x1="44" y1="1616.5" x2="1593" y2="1616.5" class="loopLine"/><line x1="44" y1="756" x2="44" y2="1616.5" class="loopLine"/><polygon points="44,756 94,756 94,769 85.6,776 44,776" class="labelBox"/><text x="69" y="769" text-anchor="middle" dominant-baseline="middle" alignment-baseline="middle" class="labelText" style="font-size: 16px; font-weight: 400;">opt</text><text x="843.5" y="774" text-anchor="middle" class="loopText" style="font-size: 16px; font-weight: 400;"><tspan x="843.5">[Comunicazione spontanea dal Presentatore al SUAP]</tspan></text></g><g class="actor-man actor-top" name="P"><line id="actor-man-torso0" x1="75" y1="25" x2="75" y2="45"/><line id="actor-man-arms0" x1="57" y1="33" x2="93" y2="33"/><line x1="57" y1="60" x2="75" y2="45"/><line x1="75" y1="45" x2="91" y2="60"/><circle cx="75" cy="10" r="15" width="150" height="65"/><text x="75" y="67.5" dominant-baseline="central" alignment-baseline="central" class="actor actor-man" style="text-anchor: middle; font-size: 16px; font-weight: 400;"><tspan x="75" dy="0">Presentatore</tspan></text></g><text x="913" y="289" text-anchor="middle" dominant-baseline="middle" alignment-baseline="middle" class="messageText" dy="1em" style="font-size: 16px; font-weight: 400;">notify(GenericCommunicationMessage)</text><line x1="644" y1="320" x2="1181" y2="320" class="messageLine0" stroke-width="2" stroke="none" marker-end="url(#arrowhead)" style="fill: none;"/><line x1="644" y1="320" x2="644" y2="320" stroke-width="0" marker-start="url(#sequencenumber)"/><text x="644" y="324" font-family="sans-serif" font-size="12px" text-anchor="middle" class="sequenceNumber">1</text><text x="916" y="335" text-anchor="middle" dominant-baseline="middle" alignment-baseline="middle" class="messageText" dy="1em" style="font-size: 16px; font-weight: 400;">ack</text><line x1="1184" y1="364" x2="647" y2="364" class="messageLine1" stroke-width="2" stroke="none" marker-end="url(#arrowhead)" style="stroke-dasharray: 3, 3; fill: none;"/><line x1="1184" y1="364" x2="1184" y2="364" stroke-width="0" marker-start="url(#sequencenumber)"/><text x="1184" y="368" font-family="sans-serif" font-size="12px" text-anchor="middle" class="sequenceNumber">2</text><text x="1101" y="379" text-anchor="middle" dominant-baseline="middle" alignment-baseline="middle" class="messageText" dy="1em" style="font-size: 16px; font-weight: 400;">audit(cui, communication_to_&lt;ET&gt;_sended)</text><line x1="644" y1="410" x2="1558" y2="410" class="messageLine1" stroke-width="2" stroke="none" marker-end="url(#arrowhead)" style="stroke-dasharray: 3, 3; fill: none;"/><line x1="644" y1="410" x2="644" y2="410" stroke-width="0" marker-start="url(#sequencenumber)"/><text x="644" y="414" font-family="sans-serif" font-size="12px" text-anchor="middle" class="sequenceNumber">3</text><text x="1104" y="425" text-anchor="middle" dominant-baseline="middle" alignment-baseline="middle" class="messageText" dy="1em" style="font-size: 16px; font-weight: 400;">ack</text><line x1="1561" y1="454" x2="647" y2="454" class="messageLine1" stroke-width="2" stroke="none" marker-end="url(#arrowhead)" style="stroke-dasharray: 3, 3; fill: none;"/><line x1="1561" y1="454" x2="1561" y2="454" stroke-width="0" marker-start="url(#sequencenumber)"/><text x="1561" y="458" font-family="sans-serif" font-size="12px" text-anchor="middle" class="sequenceNumber">4</text><text x="916" y="504" text-anchor="middle" dominant-baseline="middle" alignment-baseline="middle" class="messageText" dy="1em" style="font-size: 16px; font-weight: 400;">send_generic_communication(cui, requester_administration, resource_id)</text><line x1="1184" y1="535" x2="647" y2="535" class="messageLine0" stroke-width="2" stroke="none" marker-end="url(#arrowhead)" style="fill: none;"/><line x1="1184" y1="535" x2="1184" y2="535" stroke-width="0" marker-start="url(#sequencenumber)"/><text x="1184" y="539" font-family="sans-serif" font-size="12px" text-anchor="middle" class="sequenceNumber">5</text><text x="913" y="550" text-anchor="middle" dominant-baseline="middle" alignment-baseline="middle" class="messageText" dy="1em" style="font-size: 16px; font-weight: 400;">ack</text><line x1="644" y1="579" x2="1181" y2="579" class="messageLine1" stroke-width="2" stroke="none" marker-end="url(#arrowhead)" style="stroke-dasharray: 3, 3; fill: none;"/><line x1="644" y1="579" x2="644" y2="579" stroke-width="0" marker-start="url(#sequencenumber)"/><text x="644" y="583" font-family="sans-serif" font-size="12px" text-anchor="middle" class="sequenceNumber">6</text><text x="1372" y="594" text-anchor="middle" dominant-baseline="middle" alignment-baseline="middle" class="messageText" dy="1em" style="font-size: 16px; font-weight: 400;">audit(cui, communication_sended_from_&lt;ET&gt;)</text><line x1="1186" y1="625" x2="1558" y2="625" class="messageLine1" stroke-width="2" stroke="none" marker-end="url(#arrowhead)" style="stroke-dasharray: 3, 3; fill: none;"/><line x1="1186" y1="625" x2="1186" y2="625" stroke-width="0" marker-start="url(#sequencenumber)"/><text x="1186" y="629" font-family="sans-serif" font-size="12px" text-anchor="middle" class="sequenceNumber">7</text><text x="1104" y="640" text-anchor="middle" dominant-baseline="middle" alignment-baseline="middle" class="messageText" dy="1em" style="font-size: 16px; font-weight: 400;">ack</text><line x1="1561" y1="669" x2="647" y2="669" class="messageLine1" stroke-width="2" stroke="none" marker-end="url(#arrowhead)" style="stroke-dasharray: 3, 3; fill: none;"/><line x1="1561" y1="669" x2="1561" y2="669" stroke-width="0" marker-start="url(#sequencenumber)"/><text x="1561" y="673" font-family="sans-serif" font-size="12px" text-anchor="middle" class="sequenceNumber">8</text><text x="193" y="806" text-anchor="middle" dominant-baseline="middle" alignment-baseline="middle" class="messageText" dy="1em" style="font-size: 16px; font-weight: 400;">Invio comunicazione</text><text x="193" y="823" text-anchor="middle" dominant-baseline="middle" alignment-baseline="middle" class="messageText" dy="1em" style="font-size: 16px; font-weight: 400;">spontanea</text><line x1="76" y1="853.5" x2="310" y2="853.5" class="messageLine1" stroke-width="2" stroke="none" marker-end="url(#filled-head)" style="stroke-dasharray: 3, 3; fill: none;"/><line x1="76" y1="853.5" x2="76" y2="853.5" stroke-width="0" marker-start="url(#sequencenumber)"/><text x="76" y="857.5" font-family="sans-serif" font-size="12px" text-anchor="middle" class="sequenceNumber">9</text><text x="477" y="869" text-anchor="middle" dominant-baseline="middle" alignment-baseline="middle" class="messageText" dy="1em" style="font-size: 16px; font-weight: 400;">notify(GenericCommunicationMessage)</text><line x1="315" y1="899.5" x2="639" y2="899.5" class="messageLine0" stroke-width="2" stroke="none" marker-end="url(#arrowhead)" style="fill: none;"/><line x1="315" y1="899.5" x2="315" y2="899.5" stroke-width="0" marker-start="url(#sequencenumber)"/><text x="315" y="903.5" font-family="sans-serif" font-size="12px" text-anchor="middle" class="sequenceNumber">10</text><text x="480" y="915" text-anchor="middle" dominant-baseline="middle" alignment-baseline="middle" class="messageText" dy="1em" style="font-size: 16px; font-weight: 400;">ack</text><line x1="642" y1="943.5" x2="318" y2="943.5" class="messageLine1" stroke-width="2" stroke="none" marker-end="url(#arrowhead)" style="stroke-dasharray: 3, 3; fill: none;"/><line x1="642" y1="943.5" x2="642" y2="943.5" stroke-width="0" marker-start="url(#sequencenumber)"/><text x="642" y="947.5" font-family="sans-serif" font-size="12px" text-anchor="middle" class="sequenceNumber">11</text><text x="937" y="959" text-anchor="middle" dominant-baseline="middle" alignment-baseline="middle" class="messageText" dy="1em" style="font-size: 16px; font-weight: 400;">audit(cui, communication_fo_to_bo)</text><line x1="315" y1="989.5" x2="1558" y2="989.5" class="messageLine0" stroke-width="2" stroke="none" marker-end="url(#arrowhead)" style="fill: none;"/><line x1="315" y1="989.5" x2="315" y2="989.5" stroke-width="0" marker-start="url(#sequencenumber)"/><text x="315" y="993.5" font-family="sans-serif" font-size="12px" text-anchor="middle" class="sequenceNumber">12</text><text x="940" y="1005" text-anchor="middle" dominant-baseline="middle" alignment-baseline="middle" class="messageText" dy="1em" style="font-size: 16px; font-weight: 400;">ack</text><line x1="1561" y1="1033.5" x2="318" y2="1033.5" class="messageLine1" stroke-width="2" stroke="none" marker-end="url(#arrowhead)" style="stroke-dasharray: 3, 3; fill: none;"/><line x1="1561" y1="1033.5" x2="1561" y2="1033.5" stroke-width="0" marker-start="url(#sequencenumber)"/><text x="1561" y="1037.5" font-family="sans-serif" font-size="12px" text-anchor="middle" class="sequenceNumber">13</text><text x="480" y="1119" text-anchor="middle" dominant-baseline="middle" alignment-baseline="middle" class="messageText" dy="1em" style="font-size: 16px; font-weight: 400;">notify(GenericCommunicationMessage)</text><line x1="642" y1="1149.5" x2="318" y2="1149.5" class="messageLine0" stroke-width="2" stroke="none" marker-end="url(#arrowhead)" style="fill: none;"/><line x1="642" y1="1149.5" x2="642" y2="1149.5" stroke-width="0" marker-start="url(#sequencenumber)"/><text x="642" y="1153.5" font-family="sans-serif" font-size="12px" text-anchor="middle" class="sequenceNumber">14</text><text x="477" y="1165" text-anchor="middle" dominant-baseline="middle" alignment-baseline="middle" class="messageText" dy="1em" style="font-size: 16px; font-weight: 400;">ack</text><line x1="315" y1="1193.5" x2="639" y2="1193.5" class="messageLine1" stroke-width="2" stroke="none" marker-end="url(#arrowhead)" style="stroke-dasharray: 3, 3; fill: none;"/><line x1="315" y1="1193.5" x2="315" y2="1193.5" stroke-width="0" marker-start="url(#sequencenumber)"/><text x="315" y="1197.5" font-family="sans-serif" font-size="12px" text-anchor="middle" class="sequenceNumber">15</text><text x="196" y="1209" text-anchor="middle" dominant-baseline="middle" alignment-baseline="middle" class="messageText" dy="1em" style="font-size: 16px; font-weight: 400;">Comunicazione del SUAP</text><line x1="313" y1="1237.5" x2="79" y2="1237.5" class="messageLine1" stroke-width="2" stroke="none" marker-end="url(#filled-head)" style="stroke-dasharray: 3, 3; fill: none;"/><line x1="313" y1="1237.5" x2="313" y2="1237.5" stroke-width="0" marker-start="url(#sequencenumber)"/><text x="313" y="1241.5" font-family="sans-serif" font-size="12px" text-anchor="middle" class="sequenceNumber">16</text><text x="1101" y="1253" text-anchor="middle" dominant-baseline="middle" alignment-baseline="middle" class="messageText" dy="1em" style="font-size: 16px; font-weight: 400;">audit(cui, communication_bo_to_fo)</text><line x1="644" y1="1283.5" x2="1558" y2="1283.5" class="messageLine1" stroke-width="2" stroke="none" marker-end="url(#arrowhead)" style="stroke-dasharray: 3, 3; fill: none;"/><line x1="644" y1="1283.5" x2="644" y2="1283.5" stroke-width="0" marker-start="url(#sequencenumber)"/><text x="644" y="1287.5" font-family="sans-serif" font-size="12px" text-anchor="middle" class="sequenceNumber">17</text><text x="1104" y="1299" text-anchor="middle" dominant-baseline="middle" alignment-baseline="middle" class="messageText" dy="1em" style="font-size: 16px; font-weight: 400;">ack</text><line x1="1561" y1="1327.5" x2="647" y2="1327.5" class="messageLine1" stroke-width="2" stroke="none" marker-end="url(#arrowhead)" style="stroke-dasharray: 3, 3; fill: none;"/><line x1="1561" y1="1327.5" x2="1561" y2="1327.5" stroke-width="0" marker-start="url(#sequencenumber)"/><text x="1561" y="1331.5" font-family="sans-serif" font-size="12px" text-anchor="middle" class="sequenceNumber">18</text><text x="193" y="1378" text-anchor="middle" dominant-baseline="middle" alignment-baseline="middle" class="messageText" dy="1em" style="font-size: 16px; font-weight: 400;">Invio comunicazione</text><line x1="76" y1="1406.5" x2="310" y2="1406.5" class="messageLine1" stroke-width="2" stroke="none" marker-end="url(#filled-head)" style="stroke-dasharray: 3, 3; fill: none;"/><line x1="76" y1="1406.5" x2="76" y2="1406.5" stroke-width="0" marker-start="url(#sequencenumber)"/><text x="76" y="1410.5" font-family="sans-serif" font-size="12px" text-anchor="middle" class="sequenceNumber">19</text><text x="477" y="1422" text-anchor="middle" dominant-baseline="middle" alignment-baseline="middle" class="messageText" dy="1em" style="font-size: 16px; font-weight: 400;">notify(GenericCommunicationMessage)</text><line x1="315" y1="1452.5" x2="639" y2="1452.5" class="messageLine0" stroke-width="2" stroke="none" marker-end="url(#arrowhead)" style="fill: none;"/><line x1="315" y1="1452.5" x2="315" y2="1452.5" stroke-width="0" marker-start="url(#sequencenumber)"/><text x="315" y="1456.5" font-family="sans-serif" font-size="12px" text-anchor="middle" class="sequenceNumber">20</text><text x="480" y="1468" text-anchor="middle" dominant-baseline="middle" alignment-baseline="middle" class="messageText" dy="1em" style="font-size: 16px; font-weight: 400;">ack</text><line x1="642" y1="1496.5" x2="318" y2="1496.5" class="messageLine1" stroke-width="2" stroke="none" marker-end="url(#arrowhead)" style="stroke-dasharray: 3, 3; fill: none;"/><line x1="642" y1="1496.5" x2="642" y2="1496.5" stroke-width="0" marker-start="url(#sequencenumber)"/><text x="642" y="1500.5" font-family="sans-serif" font-size="12px" text-anchor="middle" class="sequenceNumber">21</text><text x="937" y="1512" text-anchor="middle" dominant-baseline="middle" alignment-baseline="middle" class="messageText" dy="1em" style="font-size: 16px; font-weight: 400;">audit(cui, communication_fo_to_bo)</text><line x1="315" y1="1542.5" x2="1558" y2="1542.5" class="messageLine0" stroke-width="2" stroke="none" marker-end="url(#arrowhead)" style="fill: none;"/><line x1="315" y1="1542.5" x2="315" y2="1542.5" stroke-width="0" marker-start="url(#sequencenumber)"/><text x="315" y="1546.5" font-family="sans-serif" font-size="12px" text-anchor="middle" class="sequenceNumber">22</text><text x="940" y="1558" text-anchor="middle" dominant-baseline="middle" alignment-baseline="middle" class="messageText" dy="1em" style="font-size: 16px; font-weight: 400;">ack</text><line x1="1561" y1="1586.5" x2="318" y2="1586.5" class="messageLine1" stroke-width="2" stroke="none" marker-end="url(#arrowhead)" style="stroke-dasharray: 3, 3; fill: none;"/><line x1="1561" y1="1586.5" x2="1561" y2="1586.5" stroke-width="0" marker-start="url(#sequencenumber)"/><text x="1561" y="1590.5" font-family="sans-serif" font-size="12px" text-anchor="middle" class="sequenceNumber">23</text><g class="actor-man actor-bottom" name="P"><line id="actor-man-torso4" x1="75" y1="1661.5" x2="75" y2="1681.5"/><line id="actor-man-arms4" x1="57" y1="1669.5" x2="93" y2="1669.5"/><line x1="57" y1="1696.5" x2="75" y2="1681.5"/><line x1="75" y1="1681.5" x2="91" y2="1696.5"/><circle cx="75" cy="1646.5" r="15" width="150" height="65"/><text x="75" y="1704" dominant-baseline="central" alignment-baseline="central" class="actor actor-man" style="text-anchor: middle; font-size: 16px; font-weight: 400;"><tspan x="75" dy="0">Presentatore</tspan></text></g></svg>